# xmcd
#
# Track frame offsets: 
#        150
#        22525
#        42340
#        57632
#        75332
#        95062
#        112282
#        129007
#        147807
#        165705
#
# Disc length: 2439 seconds
#
# Revision: 1
# Processed by: cddbd v1.5.2PL0 Copyright (c) Steve Scherf et al.
# Submitted via: ExactAudioCopy v1.3
#
DISCID=7b09850a
DTITLE=Black Satin Featuring Fred Parris - Black Satin
DYEAR=1976
DGENRE=Soul
TTITLE0=Tears, Tears, Tears
TTITLE1=How I Wish We Could Do It Again
TTITLE2=Let My Fingers Do The Walkin'
TTITLE3=We're A Star
TTITLE4=In The Still Of The Night
TTITLE5=Everybody Stand and Clap Your Hands
TTITLE6=Light The Matches
TTITLE7=Get It Up
TTITLE8=Hey There Pretty Lady
TTITLE9=All Over Now
EXTD=
EXTT0=
EXTT1=
EXTT2=
EXTT3=
EXTT4=
EXTT5=
EXTT6=
EXTT7=
EXTT8=
EXTT9=
PLAYORDER=
